<?xml version="1.0" encoding="UTF-8" standalone="no"?>
<!-- Svg Vector Icons : http://www.onlinewebfonts.com/icon -->

<svg
   version="1.1"
   x="0px"
   y="0px"
   viewBox="0 0 1000 1000"
   enable-background="new 0 0 1000 1000"
   xml:space="preserve"
   id="svg10"
   sodipodi:docname="sawblade4.svg"
   inkscape:version="1.1.2 (b8e25be833, 2022-02-05)"
   xmlns:inkscape="http://www.inkscape.org/namespaces/inkscape"
   xmlns:sodipodi="http://sodipodi.sourceforge.net/DTD/sodipodi-0.dtd"
   xmlns="http://www.w3.org/2000/svg"
   xmlns:svg="http://www.w3.org/2000/svg"><defs
   id="defs14" /><sodipodi:namedview
   id="namedview12"
   pagecolor="#ffffff"
   bordercolor="#666666"
   borderopacity="1.0"
   inkscape:pageshadow="2"
   inkscape:pageopacity="0.0"
   inkscape:pagecheckerboard="0"
   showgrid="false"
   inkscape:zoom="0.798"
   inkscape:cx="499.37343"
   inkscape:cy="500.62657"
   inkscape:window-width="2400"
   inkscape:window-height="1261"
   inkscape:window-x="2391"
   inkscape:window-y="-9"
   inkscape:window-maximized="1"
   inkscape:current-layer="svg10" />
<metadata
   id="metadata2"> Svg Vector Icons : http://www.onlinewebfonts.com/icon </metadata>
<g
   id="g8"
   transform="rotate(12.579409,500.11802,499.97197)"><g
     transform="matrix(0.1,0,0,-0.1,0,511)"
     id="g6"><path
       d="M 3916.4,3982.3 C 3329,3394.9 2838.8,2914.4 2824.2,2914.4 c -12.1,2.4 -313.1,157.8 -667.4,349.5 L 1513.6,3611 1501.5,2082 1489.4,553 817,353.8 C 448.1,244.6 127.7,147.5 103.5,137.8 69.5,123.2 273.4,-92.8 1132.6,-951.9 c 589.8,-589.8 1072.8,-1084.9 1072.8,-1097 0,-14.6 -157.8,-313.1 -349.5,-667.4 l -349.5,-643.2 1531.5,-12.1 1529,-12.1 150.5,-497.5 c 82.5,-274.3 179.6,-594.6 216,-713.6 l 68,-216 1077.6,1077.6 1077.6,1077.6 286.4,-150.5 c 155.3,-82.5 453.9,-242.7 660.2,-354.3 l 376.2,-201.4 12.1,1526.6 12.1,1526.6 679.6,203.9 c 373.8,114.1 696.6,211.2 716,218.4 21.8,7.3 -332.5,378.6 -1043.6,1089.8 l -1080,1080 126.2,235.4 c 70.4,131 230.6,429.6 356.8,662.6 l 228.1,424.7 -1526.6,7.3 -1524.2,4.9 -46.1,152.9 c -26.7,82.5 -121.3,395.6 -211.2,696.6 -89.8,300.9 -172.3,553.4 -179.6,563.1 -9.9,9.4 -495.3,-461.4 -1082.6,-1048.7 z M 5450.3,1421.7 C 6015.8,1230 6379.8,730 6379.8,135.4 c 0,-599.5 -359.2,-1094.6 -936.8,-1288.8 -172.3,-55.8 -216,-63.1 -458.7,-53.4 -325.2,14.6 -470.8,60.7 -716,225.7 -315.5,213.6 -533.9,565.5 -577.6,932 -80.1,662.6 281.5,1245.1 902.9,1463.5 271.8,92.3 589.7,97.1 856.7,7.3 z"
       id="path4" /></g></g>
</svg>
