<?xml version="1.0" encoding="UTF-8" standalone="no"?>
<!-- Generator: Adobe Illustrator 18.1.1, SVG Export Plug-In . SVG Version: 6.00 Build 0)  -->

<svg
   version="1.1"
   id="Capa_1"
   x="0px"
   y="0px"
   viewBox="0 0 283.196 283.196"
   style="enable-background:new 0 0 283.196 283.196;"
   xml:space="preserve"
   sodipodi:docname="tread2.svg"
   inkscape:version="1.1.2 (b8e25be833, 2022-02-05)"
   xmlns:inkscape="http://www.inkscape.org/namespaces/inkscape"
   xmlns:sodipodi="http://sodipodi.sourceforge.net/DTD/sodipodi-0.dtd"
   xmlns="http://www.w3.org/2000/svg"
   xmlns:svg="http://www.w3.org/2000/svg"><defs
   id="defs45" /><sodipodi:namedview
   id="namedview43"
   pagecolor="#ffffff"
   bordercolor="#666666"
   borderopacity="1.0"
   inkscape:pageshadow="2"
   inkscape:pageopacity="0.0"
   inkscape:pagecheckerboard="0"
   showgrid="false"
   inkscape:zoom="2.8178363"
   inkscape:cx="141.77545"
   inkscape:cy="141.77545"
   inkscape:window-width="1920"
   inkscape:window-height="991"
   inkscape:window-x="-9"
   inkscape:window-y="-9"
   inkscape:window-maximized="1"
   inkscape:current-layer="Capa_1" />
<g
   id="g10"
   style="fill:#6c5d53">
	<path
   style="fill:#6c5d53"
   d="M240.861,283.196H42.335c-6.005,0-10.878-4.873-10.878-10.878V10.878C31.457,4.873,36.33,0,42.335,0   h198.526c6.005,0,10.878,4.873,10.878,10.878v261.44C251.739,278.328,246.866,283.196,240.861,283.196z"
   id="path2" />
	<path
   style="fill:#6c5d53"
   d="M215.428,233.82H67.763c-5.619,0-10.171-4.553-10.171-10.176V46.384   c0-5.619,4.552-10.176,10.171-10.176h147.665c5.619,0,10.171,4.552,10.171,10.176v177.259   C225.604,229.267,221.046,233.82,215.428,233.82z"
   id="path4" />
	<circle
   style="fill:#6c5d53"
   cx="141.598"
   cy="259.715"
   r="8.838"
   id="circle6" />
	<circle
   style="fill:#6c5d53"
   cx="141.598"
   cy="18.509"
   r="2.643"
   id="circle8" />
</g>
<g
   id="g12">
</g>
<g
   id="g14">
</g>
<g
   id="g16">
</g>
<g
   id="g18">
</g>
<g
   id="g20">
</g>
<g
   id="g22">
</g>
<g
   id="g24">
</g>
<g
   id="g26">
</g>
<g
   id="g28">
</g>
<g
   id="g30">
</g>
<g
   id="g32">
</g>
<g
   id="g34">
</g>
<g
   id="g36">
</g>
<g
   id="g38">
</g>
<g
   id="g40">
</g>
</svg>
