<?xml version="1.0" encoding="UTF-8" standalone="no"?>
<!-- Generator: Adobe Illustrator 18.1.1, SVG Export Plug-In . SVG Version: 6.00 Build 0)  -->

<svg
   version="1.1"
   id="Capa_1"
   x="0px"
   y="0px"
   viewBox="0 0 283.196 283.196"
   style="enable-background:new 0 0 283.196 283.196;"
   xml:space="preserve"
   sodipodi:docname="tread2.svg"
   inkscape:version="1.1.2 (b8e25be833, 2022-02-05)"
   xmlns:inkscape="http://www.inkscape.org/namespaces/inkscape"
   xmlns:sodipodi="http://sodipodi.sourceforge.net/DTD/sodipodi-0.dtd"
   xmlns="http://www.w3.org/2000/svg"
   xmlns:svg="http://www.w3.org/2000/svg"><defs
   id="defs45" /><sodipodi:namedview
   id="namedview43"
   pagecolor="#ffffff"
   bordercolor="#666666"
   borderopacity="1.0"
   inkscape:pageshadow="2"
   inkscape:pageopacity="0.0"
   inkscape:pagecheckerboard="0"
   showgrid="false"
   inkscape:zoom="2.8178363"
   inkscape:cx="141.77545"
   inkscape:cy="164.48791"
   inkscape:window-width="1920"
   inkscape:window-height="991"
   inkscape:window-x="-9"
   inkscape:window-y="-9"
   inkscape:window-maximized="1"
   inkscape:current-layer="Capa_1" />
















<g
   id="g63"
   transform="matrix(1.2815339,0,0,1,-39.651877,0)"><g
     id="g10"
     style="fill:#000000">
	<path
   style="fill:#000000"
   d="M 240.861,283.196 H 42.335 c -6.005,0 -10.878,-4.873 -10.878,-10.878 V 10.878 C 31.457,4.873 36.33,0 42.335,0 h 198.526 c 6.005,0 10.878,4.873 10.878,10.878 v 261.44 c 0,6.01 -4.873,10.878 -10.878,10.878 z"
   id="path2" />
	<path
   style="fill:#000000"
   d="M 215.428,233.82 H 67.763 c -5.619,0 -10.171,-4.553 -10.171,-10.176 V 46.384 c 0,-5.619 4.552,-10.176 10.171,-10.176 h 147.665 c 5.619,0 10.171,4.552 10.171,10.176 v 177.259 c 0.005,5.624 -4.553,10.177 -10.171,10.177 z"
   id="path4" />
	<circle
   style="fill:#000000"
   cx="141.59801"
   cy="259.715"
   r="8.8380003"
   id="circle6" />
	<circle
   style="fill:#000000"
   cx="141.59801"
   cy="18.509001"
   r="2.6429999"
   id="circle8" />
</g><g
     id="g12">
</g><g
     id="g14">
</g><g
     id="g16">
</g><g
     id="g18">
</g><g
     id="g20">
</g><g
     id="g22">
</g><g
     id="g24">
</g><g
     id="g26">
</g><g
     id="g28">
</g><g
     id="g30">
</g><g
     id="g32">
</g><g
     id="g34">
</g><g
     id="g36">
</g><g
     id="g38">
</g><g
     id="g40">
</g><rect
     style="fill:#808080;stroke-width:1.00551"
     id="rect47"
     width="221.38031"
     height="6.3878798"
     x="30.94095"
     y="15.810106" /><rect
     style="fill:#808080;stroke-width:1.00551"
     id="rect883"
     width="221.38031"
     height="6.3878798"
     x="30.94095"
     y="46.310001" /><rect
     style="fill:#808080;stroke-width:1.00551"
     id="rect885"
     width="221.38031"
     height="6.3878798"
     x="30.94095"
     y="76.309998" /><rect
     style="fill:#808080;stroke-width:1.00551"
     id="rect887"
     width="221.38031"
     height="6.3878798"
     x="30.94095"
     y="106.31" /><rect
     style="fill:#808080;stroke-width:1.00551"
     id="rect889"
     width="221.38031"
     height="6.3878798"
     x="30.94095"
     y="136.31" /><rect
     style="fill:#808080;stroke-width:1.00551"
     id="rect891"
     width="221.38031"
     height="6.3878798"
     x="30.94095"
     y="166.31" /><rect
     style="fill:#808080;stroke-width:1.00551"
     id="rect893"
     width="221.38031"
     height="6.3878798"
     x="30.94095"
     y="196.31" /><rect
     style="fill:#808080;stroke-width:1.00551"
     id="rect895"
     width="221.38031"
     height="6.3878798"
     x="30.94095"
     y="226.31" /><rect
     style="fill:#808080;stroke-width:1.00551"
     id="rect897"
     width="221.38031"
     height="6.3878798"
     x="30.94095"
     y="256.31" /></g></svg>
