<?xml version="1.0" encoding="UTF-8" standalone="no"?>
<!-- Created with Inkscape (http://www.inkscape.org/) -->

<svg
   width="210mm"
   height="297mm"
   viewBox="0 0 210 297"
   version="1.1"
   id="svg5"
   inkscape:version="1.1.2 (b8e25be833, 2022-02-05)"
   sodipodi:docname="tread1.svg"
   xmlns:inkscape="http://www.inkscape.org/namespaces/inkscape"
   xmlns:sodipodi="http://sodipodi.sourceforge.net/DTD/sodipodi-0.dtd"
   xmlns="http://www.w3.org/2000/svg"
   xmlns:svg="http://www.w3.org/2000/svg">
  <sodipodi:namedview
     id="namedview7"
     pagecolor="#ffffff"
     bordercolor="#666666"
     borderopacity="1.0"
     inkscape:pageshadow="2"
     inkscape:pageopacity="0.0"
     inkscape:pagecheckerboard="0"
     inkscape:document-units="mm"
     showgrid="false"
     inkscape:zoom="0.71090067"
     inkscape:cx="397.38322"
     inkscape:cy="-9.1433308"
     inkscape:window-width="1920"
     inkscape:window-height="991"
     inkscape:window-x="-9"
     inkscape:window-y="-9"
     inkscape:window-maximized="1"
     inkscape:current-layer="layer1" />
  <defs
     id="defs2" />
  <g
     inkscape:label="Layer 1"
     inkscape:groupmode="layer"
     id="layer1">
    <g
       id="g102"
       transform="matrix(0.95050536,0,0,1.0465413,-29.409539,0)">
      <g
         id="g10"
         style="fill:#000000">
        <path
           style="fill:#000000"
           d="M 240.861,283.196 H 42.335 c -6.005,0 -10.878,-4.873 -10.878,-10.878 V 10.878 C 31.457,4.873 36.33,0 42.335,0 h 198.526 c 6.005,0 10.878,4.873 10.878,10.878 v 261.44 c 0,6.01 -4.873,10.878 -10.878,10.878 z"
           id="path2" />
        <path
           style="fill:#000000"
           d="M 215.428,233.82 H 67.763 c -5.619,0 -10.171,-4.553 -10.171,-10.176 V 46.384 c 0,-5.619 4.552,-10.176 10.171,-10.176 h 147.665 c 5.619,0 10.171,4.552 10.171,10.176 v 177.259 c 0.005,5.624 -4.553,10.177 -10.171,10.177 z"
           id="path4" />
        <circle
           style="fill:#000000"
           cx="141.59801"
           cy="259.715"
           r="8.8380003"
           id="circle6" />
        <circle
           style="fill:#000000"
           cx="141.59801"
           cy="18.509001"
           r="2.6429999"
           id="circle8" />
      </g>
      <g
         id="g12" />
      <g
         id="g14" />
      <g
         id="g16" />
      <g
         id="g18" />
      <g
         id="g20" />
      <g
         id="g22" />
      <g
         id="g24" />
      <g
         id="g26" />
      <g
         id="g28" />
      <g
         id="g30" />
      <g
         id="g32" />
      <g
         id="g34" />
      <g
         id="g36" />
      <g
         id="g38" />
      <g
         id="g40" />
      <rect
         style="fill:#808080;stroke-width:1.00551"
         id="rect47"
         width="221.38031"
         height="6.3878798"
         x="30.94095"
         y="29.810106" />
      <rect
         style="fill:#808080;stroke-width:1.00551"
         id="rect883"
         width="221.38031"
         height="6.3878798"
         x="30.94095"
         y="60.310001" />
      <rect
         style="fill:#808080;stroke-width:1.00551"
         id="rect885"
         width="221.38031"
         height="6.3878798"
         x="30.94095"
         y="90.309998" />
      <rect
         style="fill:#808080;stroke-width:1.00551"
         id="rect887"
         width="221.38031"
         height="6.3878798"
         x="30.94095"
         y="120.31" />
      <rect
         style="fill:#808080;stroke-width:1.00551"
         id="rect889"
         width="221.38031"
         height="6.3878798"
         x="30.94095"
         y="150.31" />
      <rect
         style="fill:#808080;stroke-width:1.00551"
         id="rect891"
         width="221.38031"
         height="6.3878798"
         x="30.94095"
         y="180.31" />
      <rect
         style="fill:#808080;stroke-width:1.00551"
         id="rect893"
         width="221.38031"
         height="6.3878798"
         x="30.94095"
         y="210.31" />
      <rect
         style="fill:#808080;stroke-width:1.00551"
         id="rect895"
         width="221.38031"
         height="6.3878798"
         x="30.94095"
         y="240.31" />
      <rect
         style="fill:#808080;stroke-width:1.00551"
         id="rect897"
         width="221.38031"
         height="6.3878798"
         x="30.94095"
         y="270.31" />
    </g>
  </g>
</svg>
